  0
SECTION
  2
HEADER
  9
$ACADVER
  1
AC1018
  9
$HANDSEED
  5
FFFFFFFF
  9
$ANGBASE
  50
0.0
  9
$ANGDIR
  70
1
  9
$MEASUREMENT
  70
0
  9
$INSUNITS
  70
1
  0
ENDSEC
  0
SECTION
  2
TABLES
  0
TABLE
  2
APPID
  5
1
330
0
100
AcDbSymbolTable
 70
1
  0
APPID
  5
2
330
1
100
AcDbSymbolTableRecord
100
AcDbRegAppTableRecord
  2
ACAD
 70
0
  0
ENDTAB
  0
TABLE
  2
LTYPE
  5
3
330
0
100
AcDbSymbolTable
 70
6
  0
LTYPE
  5
4
330
3
100
AcDbSymbolTableRecord
100
AcDbLinetypeTableRecord
  2
ByBlock
 70
0
  3

 72
65
 73
0
 40
0
  0
LTYPE
  5
5
330
3
100
AcDbSymbolTableRecord
100
AcDbLinetypeTableRecord
  2
ByLayer
 70
0
  3

 72
65
 73
0
 40
0
  0
LTYPE
  5
6
330
3
100
AcDbSymbolTableRecord
100
AcDbLinetypeTableRecord
  2
CONTINUOUS
 70
0
  3
Solid line
 72
65
 73
0
 40
0
  0
LTYPE
  5
7
330
3
100
AcDbSymbolTableRecord
100
AcDbLinetypeTableRecord
  2
DASHDOT
 70
0
  3
Dash Dot ____ _ ____ _
 72
65
 73
4
 40
2
 49
1.25
 74
0
 49
-0.25
 74
0
 49
0.25
 74
0
 49
-0.25
 74
0
  0
LTYPE
  5
8
330
3
100
AcDbSymbolTableRecord
100
AcDbLinetypeTableRecord
  2
DASHED
 70
0
  3
Dashed __ __ __ __ __
 72
65
 73
2
 40
0.75
 49
0.5
 74
0
 49
-0.25
 74
0
  0
LTYPE
  5
9
330
3
100
AcDbSymbolTableRecord
100
AcDbLinetypeTableRecord
  2
DOTTED
 70
0
  3
Dotted .  .  .  .
 72
65
 73
2
 40
0.2
 49
0.0
 74
0
 49
-0.2
 74
0
  0
ENDTAB
  0
TABLE
  2
STYLE
  5
A
330
0
100
AcDbSymbolTable
 70
4
  0
STYLE
  5
B
330
A
100
AcDbSymbolTableRecord
100
AcDbTextStyleTableRecord
  2
KICAD
 70
0
 40
0
 41
1
 42
1
 50
0
 71
0
  3
isocp.shx
  0
STYLE
  5
C
330
A
100
AcDbSymbolTableRecord
100
AcDbTextStyleTableRecord
  2
KICADB
 70
0
 40
0
 41
1
 42
1
 50
0
 71
0
  3
isocp.shx
  0
STYLE
  5
D
330
A
100
AcDbSymbolTableRecord
100
AcDbTextStyleTableRecord
  2
KICADI
 70
0
 40
0
 41
1
 42
1
 50
15
 71
0
  3
isocp.shx
  0
STYLE
  5
E
330
A
100
AcDbSymbolTableRecord
100
AcDbTextStyleTableRecord
  2
KICADBI
 70
0
 40
0
 41
1
 42
1
 50
15
 71
0
  3
isocp.shx
  0
ENDTAB
  0
TABLE
  2
LAYER
  5
F
330
0
100
AcDbSymbolTable
 70
2
  0
LAYER
  5
12
330
F
100
AcDbSymbolTableRecord
100
AcDbLayerTableRecord
  2
0
 70
0
 62
7
  6
CONTINUOUS
390
10
  0
LAYER
  5
13
330
F
100
AcDbSymbolTableRecord
100
AcDbLayerTableRecord
  2
Edge.Cuts
 70
0
 62
254
420
13685453
  6
CONTINUOUS
390
10
  0
ENDTAB
  0
TABLE
  2
VPORT
  5
14
330
0
100
AcDbSymbolTable
 70
0
  0
ENDTAB
  0
TABLE
  2
VIEW
  5
15
330
0
100
AcDbSymbolTable
 70
0
  0
ENDTAB
  0
TABLE
  2
UCS
  5
16
330
0
100
AcDbSymbolTable
 70
0
  0
ENDTAB
  0
TABLE
  2
DIMSTYLE
  5
17
330
0
100
AcDbSymbolTable
 70
1
100
AcDbDimStyleTable
 71
0
  0
DIMSTYLE
105
18
330
17
100
AcDbSymbolTableRecord
100
AcDbDimStyleTableRecord
  2
Standard
 70
0
  0
ENDTAB
  0
TABLE
  2
BLOCK_RECORD
  5
19
330
0
100
AcDbSymbolTable
 70
3
  0
BLOCK_RECORD
  5
1A
330
19
100
AcDbSymbolTableRecord
100
AcDbBlockTableRecord
  2
*Model_Space
340
1D
 70
0
280
1
281
0
  0
BLOCK_RECORD
  5
1B
330
19
100
AcDbSymbolTableRecord
100
AcDbBlockTableRecord
  2
*Paper_Space
340
1E
 70
0
280
1
281
0
  0
BLOCK_RECORD
  5
1C
330
19
100
AcDbSymbolTableRecord
100
AcDbBlockTableRecord
  2
*Paper_Space0
340
1F
 70
0
280
1
281
0
  0
ENDTAB
  0
ENDSEC
  0
SECTION
  2
BLOCKS
  0
BLOCK
  5
23
330
1A
100
AcDbEntity
  8
0
100
AcDbBlockBegin
  2
*Model_Space
 70
0
 10
0.0
 20
0.0
 30
0.0
  3
*Model_Space
  1

  0
ENDBLK
  5
22
330
1A
100
AcDbEntity
  8
0
100
AcDbBlockEnd
  0
BLOCK
  5
25
330
1B
100
AcDbEntity
 67
1
  8
0
100
AcDbBlockBegin
  2
*Paper_Space
 70
0
 10
0.0
 20
0.0
 30
0.0
  3
*Paper_Space
  1

  0
ENDBLK
  5
24
330
1B
100
AcDbEntity
 67
1
  8
0
100
AcDbBlockEnd
  0
BLOCK
  5
27
330
1C
100
AcDbEntity
 67
1
  8
0
100
AcDbBlockBegin
  2
*Paper_Space0
 70
0
 10
0.0
 20
0.0
 30
0.0
  3
*Paper_Space0
  1

  0
ENDBLK
  5
26
330
1C
100
AcDbEntity
 67
1
  8
0
100
AcDbBlockEnd
  0
ENDSEC
  0
SECTION
  2
ENTITIES
  0
LINE
  5
28
330
1A
100
AcDbEntity
  8
Edge.Cuts
  6
CONTINUOUS
100
AcDbLine
 10
4.3055118110236217
 20
-2.0206053149606298
 30
0
 11
4.3043307086614169
 21
-6.1450147637795274
 31
0
  0
LINE
  5
29
330
1A
100
AcDbEntity
  8
Edge.Cuts
  6
CONTINUOUS
100
AcDbLine
 10
4.3043307086614169
 20
-6.1450147637795274
 30
0
 11
4.4232283464566926
 21
-6.2643061023622044
 31
0
  0
LINE
  5
2A
330
1A
100
AcDbEntity
  8
Edge.Cuts
  6
CONTINUOUS
100
AcDbLine
 10
4.4232283464566926
 20
-6.2643061023622044
 30
0
 11
7.5381889763779526
 21
-6.2639124015748031
 31
0
  0
LINE
  5
2B
330
1A
100
AcDbEntity
  8
Edge.Cuts
  6
CONTINUOUS
100
AcDbLine
 10
7.5381889763779526
 20
-6.2639124015748031
 30
0
 11
7.6574803149606296
 21
-6.1450147637795274
 31
0
  0
LINE
  5
2C
330
1A
100
AcDbEntity
  8
Edge.Cuts
  6
CONTINUOUS
100
AcDbLine
 10
7.6574803149606296
 20
-6.1450147637795274
 30
0
 11
7.6574803149606296
 21
-2.0190305118110237
 31
0
  0
LINE
  5
2D
330
1A
100
AcDbEntity
  8
Edge.Cuts
  6
CONTINUOUS
100
AcDbLine
 10
7.6574803149606296
 20
-2.0190305118110237
 30
0
 11
4.3055118110236217
 21
-2.0202116141732285
 31
0
  0
LINE
  5
2E
330
1A
100
AcDbEntity
  8
Edge.Cuts
  6
CONTINUOUS
100
AcDbLine
 10
4.3055118110236217
 20
-2.0202116141732285
 30
0
 11
4.3055118110236217
 21
-2.0206053149606298
 31
0
  0
CIRCLE
  5
2F
330
1A
100
AcDbEntity
  8
Edge.Cuts
100
AcDbCircle
 10
5.4523622047244089
 20
-4.7651574803149606
 30
0
 40
0.0196850393700787
  0
CIRCLE
  5
30
330
1A
100
AcDbEntity
  8
Edge.Cuts
100
AcDbCircle
 10
5.4523622047244089
 20
-4.6651574803149609
 30
0
 40
0.0196850393700787
  0
CIRCLE
  5
31
330
1A
100
AcDbEntity
  8
Edge.Cuts
100
AcDbCircle
 10
4.9192913385826769
 20
-3.6870078740157481
 30
0
 40
0.0059055118110236
  0
CIRCLE
  5
32
330
1A
100
AcDbEntity
  8
Edge.Cuts
100
AcDbCircle
 10
4.9192913385826769
 20
-3.7381889763779528
 30
0
 40
0.0059055118110236
  0
CIRCLE
  5
33
330
1A
100
AcDbEntity
  8
Edge.Cuts
100
AcDbCircle
 10
4.9192913385826769
 20
-3.7893700787401574
 30
0
 40
0.0059055118110236
  0
CIRCLE
  5
34
330
1A
100
AcDbEntity
  8
Edge.Cuts
100
AcDbCircle
 10
4.9192913385826769
 20
-3.840551181102362
 30
0
 40
0.0059055118110236
  0
CIRCLE
  5
35
330
1A
100
AcDbEntity
  8
Edge.Cuts
100
AcDbCircle
 10
4.9704724409448815
 20
-3.6870078740157481
 30
0
 40
0.0059055118110236
  0
CIRCLE
  5
36
330
1A
100
AcDbEntity
  8
Edge.Cuts
100
AcDbCircle
 10
4.9704724409448815
 20
-3.7381889763779528
 30
0
 40
0.0059055118110236
  0
CIRCLE
  5
37
330
1A
100
AcDbEntity
  8
Edge.Cuts
100
AcDbCircle
 10
4.9704724409448815
 20
-3.7893700787401574
 30
0
 40
0.0059055118110236
  0
CIRCLE
  5
38
330
1A
100
AcDbEntity
  8
Edge.Cuts
100
AcDbCircle
 10
4.9704724409448815
 20
-3.840551181102362
 30
0
 40
0.0059055118110236
  0
CIRCLE
  5
39
330
1A
100
AcDbEntity
  8
Edge.Cuts
100
AcDbCircle
 10
5.7086614173228343
 20
-4.2791338582677163
 30
0
 40
0.0196850393700787
  0
CIRCLE
  5
3A
330
1A
100
AcDbEntity
  8
Edge.Cuts
100
AcDbCircle
 10
5.7086614173228343
 20
-4.3791338582677168
 30
0
 40
0.0196850393700787
  0
CIRCLE
  5
3B
330
1A
100
AcDbEntity
  8
Edge.Cuts
100
AcDbCircle
 10
5.7086614173228343
 20
-4.4791338582677165
 30
0
 40
0.0196850393700787
  0
CIRCLE
  5
3C
330
1A
100
AcDbEntity
  8
Edge.Cuts
100
AcDbCircle
 10
5.7086614173228343
 20
-4.5791338582677161
 30
0
 40
0.0196850393700787
  0
CIRCLE
  5
3D
330
1A
100
AcDbEntity
  8
Edge.Cuts
100
AcDbCircle
 10
5.2866141732283465
 20
-2.9913385826771655
 30
0
 40
0.0196850393700787
  0
CIRCLE
  5
3E
330
1A
100
AcDbEntity
  8
Edge.Cuts
100
AcDbCircle
 10
5.1866141732283459
 20
-2.9913385826771655
 30
0
 40
0.0196850393700787
  0
CIRCLE
  5
3F
330
1A
100
AcDbEntity
  8
Edge.Cuts
100
AcDbCircle
 10
5.0866141732283463
 20
-2.9913385826771655
 30
0
 40
0.0196850393700787
  0
CIRCLE
  5
40
330
1A
100
AcDbEntity
  8
Edge.Cuts
100
AcDbCircle
 10
4.9866141732283467
 20
-2.9913385826771655
 30
0
 40
0.0196850393700787
  0
CIRCLE
  5
41
330
1A
100
AcDbEntity
  8
Edge.Cuts
100
AcDbCircle
 10
4.8866141732283461
 20
-2.9913385826771655
 30
0
 40
0.0196850393700787
  0
CIRCLE
  5
42
330
1A
100
AcDbEntity
  8
Edge.Cuts
100
AcDbCircle
 10
4.7866141732283465
 20
-2.9913385826771655
 30
0
 40
0.0196850393700787
  0
CIRCLE
  5
43
330
1A
100
AcDbEntity
  8
Edge.Cuts
100
AcDbCircle
 10
5.7086614173228343
 20
-4.8212598425196846
 30
0
 40
0.0196850393700787
  0
CIRCLE
  5
44
330
1A
100
AcDbEntity
  8
Edge.Cuts
100
AcDbCircle
 10
5.7086614173228343
 20
-4.9212598425196852
 30
0
 40
0.0196850393700787
  0
CIRCLE
  5
45
330
1A
100
AcDbEntity
  8
Edge.Cuts
100
AcDbCircle
 10
5.7086614173228343
 20
-5.0212598425196848
 30
0
 40
0.0196850393700787
  0
CIRCLE
  5
46
330
1A
100
AcDbEntity
  8
Edge.Cuts
100
AcDbCircle
 10
5.7086614173228343
 20
-5.1212598425196854
 30
0
 40
0.0196850393700787
  0
CIRCLE
  5
47
330
1A
100
AcDbEntity
  8
Edge.Cuts
100
AcDbCircle
 10
5.7086614173228343
 20
-3.7279527559055117
 30
0
 40
0.0196850393700787
  0
CIRCLE
  5
48
330
1A
100
AcDbEntity
  8
Edge.Cuts
100
AcDbCircle
 10
5.7086614173228343
 20
-3.8279527559055118
 30
0
 40
0.0196850393700787
  0
CIRCLE
  5
49
330
1A
100
AcDbEntity
  8
Edge.Cuts
100
AcDbCircle
 10
5.7086614173228343
 20
-3.9279527559055119
 30
0
 40
0.0196850393700787
  0
CIRCLE
  5
4A
330
1A
100
AcDbEntity
  8
Edge.Cuts
100
AcDbCircle
 10
5.7086614173228343
 20
-4.0279527559055115
 30
0
 40
0.0196850393700787
  0
CIRCLE
  5
4B
330
1A
100
AcDbEntity
  8
Edge.Cuts
100
AcDbCircle
 10
7.2779527559055115
 20
-2.8149606299212597
 30
0
 40
0.02
  0
CIRCLE
  5
4C
330
1A
100
AcDbEntity
  8
Edge.Cuts
100
AcDbCircle
 10
7.1779527559055119
 20
-2.8149606299212597
 30
0
 40
0.02
  0
CIRCLE
  5
4D
330
1A
100
AcDbEntity
  8
Edge.Cuts
100
AcDbCircle
 10
7.0779527559055113
 20
-2.8149606299212597
 30
0
 40
0.02
  0
CIRCLE
  5
4E
330
1A
100
AcDbEntity
  8
Edge.Cuts
100
AcDbCircle
 10
6.9779527559055117
 20
-2.8149606299212597
 30
0
 40
0.02
  0
CIRCLE
  5
4F
330
1A
100
AcDbEntity
  8
Edge.Cuts
100
AcDbCircle
 10
6.877952755905512
 20
-2.8149606299212597
 30
0
 40
0.02
  0
CIRCLE
  5
50
330
1A
100
AcDbEntity
  8
Edge.Cuts
100
AcDbCircle
 10
6.7779527559055115
 20
-2.8149606299212597
 30
0
 40
0.02
  0
CIRCLE
  5
51
330
1A
100
AcDbEntity
  8
Edge.Cuts
100
AcDbCircle
 10
6.6779527559055119
 20
-2.8149606299212597
 30
0
 40
0.02
  0
CIRCLE
  5
52
330
1A
100
AcDbEntity
  8
Edge.Cuts
100
AcDbCircle
 10
6.5779527559055113
 20
-2.8149606299212597
 30
0
 40
0.02
  0
CIRCLE
  5
53
330
1A
100
AcDbEntity
  8
Edge.Cuts
100
AcDbCircle
 10
6.4779527559055117
 20
-2.8149606299212597
 30
0
 40
0.02
  0
CIRCLE
  5
54
330
1A
100
AcDbEntity
  8
Edge.Cuts
100
AcDbCircle
 10
6.377952755905512
 20
-2.8149606299212597
 30
0
 40
0.02
  0
CIRCLE
  5
55
330
1A
100
AcDbEntity
  8
Edge.Cuts
100
AcDbCircle
 10
7.2775590551181102
 20
-2.9913385826771655
 30
0
 40
0.02
  0
CIRCLE
  5
56
330
1A
100
AcDbEntity
  8
Edge.Cuts
100
AcDbCircle
 10
7.1775590551181097
 20
-2.9913385826771655
 30
0
 40
0.02
  0
CIRCLE
  5
57
330
1A
100
AcDbEntity
  8
Edge.Cuts
100
AcDbCircle
 10
7.07755905511811
 20
-2.9913385826771655
 30
0
 40
0.02
  0
CIRCLE
  5
58
330
1A
100
AcDbEntity
  8
Edge.Cuts
100
AcDbCircle
 10
6.9775590551181104
 20
-2.9913385826771655
 30
0
 40
0.02
  0
CIRCLE
  5
59
330
1A
100
AcDbEntity
  8
Edge.Cuts
100
AcDbCircle
 10
6.8775590551181098
 20
-2.9913385826771655
 30
0
 40
0.02
  0
CIRCLE
  5
5A
330
1A
100
AcDbEntity
  8
Edge.Cuts
100
AcDbCircle
 10
6.7775590551181102
 20
-2.9913385826771655
 30
0
 40
0.02
  0
CIRCLE
  5
5B
330
1A
100
AcDbEntity
  8
Edge.Cuts
100
AcDbCircle
 10
6.6775590551181097
 20
-2.9913385826771655
 30
0
 40
0.02
  0
CIRCLE
  5
5C
330
1A
100
AcDbEntity
  8
Edge.Cuts
100
AcDbCircle
 10
6.57755905511811
 20
-2.9913385826771655
 30
0
 40
0.02
  0
CIRCLE
  5
5D
330
1A
100
AcDbEntity
  8
Edge.Cuts
100
AcDbCircle
 10
6.4775590551181104
 20
-2.9913385826771655
 30
0
 40
0.02
  0
CIRCLE
  5
5E
330
1A
100
AcDbEntity
  8
Edge.Cuts
100
AcDbCircle
 10
6.3775590551181098
 20
-2.9913385826771655
 30
0
 40
0.02
  0
CIRCLE
  5
5F
330
1A
100
AcDbEntity
  8
Edge.Cuts
100
AcDbCircle
 10
5.9307086614173228
 20
-3.4545226377952756
 30
0
 40
0.0127952755905512
  0
CIRCLE
  5
60
330
1A
100
AcDbEntity
  8
Edge.Cuts
100
AcDbCircle
 10
5.9807086614173226
 20
-3.4545226377952756
 30
0
 40
0.0127952755905512
  0
CIRCLE
  5
61
330
1A
100
AcDbEntity
  8
Edge.Cuts
100
AcDbCircle
 10
5.9307086614173228
 20
-3.5045226377952754
 30
0
 40
0.0127952755905512
  0
CIRCLE
  5
62
330
1A
100
AcDbEntity
  8
Edge.Cuts
100
AcDbCircle
 10
5.9807086614173226
 20
-3.5045226377952754
 30
0
 40
0.0127952755905512
  0
CIRCLE
  5
63
330
1A
100
AcDbEntity
  8
Edge.Cuts
100
AcDbCircle
 10
5.9307086614173228
 20
-3.5545226377952757
 30
0
 40
0.0127952755905512
  0
CIRCLE
  5
64
330
1A
100
AcDbEntity
  8
Edge.Cuts
100
AcDbCircle
 10
5.9807086614173226
 20
-3.5545226377952757
 30
0
 40
0.0127952755905512
  0
CIRCLE
  5
65
330
1A
100
AcDbEntity
  8
Edge.Cuts
100
AcDbCircle
 10
5.9307086614173228
 20
-3.6045226377952755
 30
0
 40
0.0127952755905512
  0
CIRCLE
  5
66
330
1A
100
AcDbEntity
  8
Edge.Cuts
100
AcDbCircle
 10
5.9807086614173226
 20
-3.6045226377952755
 30
0
 40
0.0127952755905512
  0
CIRCLE
  5
67
330
1A
100
AcDbEntity
  8
Edge.Cuts
100
AcDbCircle
 10
5.9307086614173228
 20
-3.6545226377952753
 30
0
 40
0.0127952755905512
  0
CIRCLE
  5
68
330
1A
100
AcDbEntity
  8
Edge.Cuts
100
AcDbCircle
 10
5.9807086614173226
 20
-3.6545226377952753
 30
0
 40
0.0127952755905512
  0
CIRCLE
  5
69
330
1A
100
AcDbEntity
  8
Edge.Cuts
100
AcDbCircle
 10
5.9307086614173228
 20
-3.7045226377952756
 30
0
 40
0.0127952755905512
  0
CIRCLE
  5
6A
330
1A
100
AcDbEntity
  8
Edge.Cuts
100
AcDbCircle
 10
5.9807086614173226
 20
-3.7045226377952756
 30
0
 40
0.0127952755905512
  0
CIRCLE
  5
6B
330
1A
100
AcDbEntity
  8
Edge.Cuts
100
AcDbCircle
 10
5.9307086614173228
 20
-3.7545226377952754
 30
0
 40
0.0127952755905512
  0
CIRCLE
  5
6C
330
1A
100
AcDbEntity
  8
Edge.Cuts
100
AcDbCircle
 10
5.9807086614173226
 20
-3.7545226377952754
 30
0
 40
0.0127952755905512
  0
CIRCLE
  5
6D
330
1A
100
AcDbEntity
  8
Edge.Cuts
100
AcDbCircle
 10
6.414366141732283
 20
-4.7330669291338578
 30
0
 40
0.02
  0
CIRCLE
  5
6E
330
1A
100
AcDbEntity
  8
Edge.Cuts
100
AcDbCircle
 10
6.5143661417322836
 20
-4.7330669291338578
 30
0
 40
0.02
  0
CIRCLE
  5
6F
330
1A
100
AcDbEntity
  8
Edge.Cuts
100
AcDbCircle
 10
6.6143661417322832
 20
-4.7330669291338578
 30
0
 40
0.02
  0
CIRCLE
  5
70
330
1A
100
AcDbEntity
  8
Edge.Cuts
100
AcDbCircle
 10
6.7143661417322837
 20
-4.7330669291338578
 30
0
 40
0.02
  0
CIRCLE
  5
71
330
1A
100
AcDbEntity
  8
Edge.Cuts
100
AcDbCircle
 10
6.8143661417322834
 20
-4.7330669291338578
 30
0
 40
0.02
  0
CIRCLE
  5
72
330
1A
100
AcDbEntity
  8
Edge.Cuts
100
AcDbCircle
 10
6.914366141732283
 20
-4.7330669291338578
 30
0
 40
0.02
  0
CIRCLE
  5
73
330
1A
100
AcDbEntity
  8
Edge.Cuts
100
AcDbCircle
 10
7.0143661417322836
 20
-4.7330669291338578
 30
0
 40
0.02
  0
CIRCLE
  5
74
330
1A
100
AcDbEntity
  8
Edge.Cuts
100
AcDbCircle
 10
7.1143661417322832
 20
-4.7330669291338578
 30
0
 40
0.02
  0
CIRCLE
  5
75
330
1A
100
AcDbEntity
  8
Edge.Cuts
100
AcDbCircle
 10
7.2143661417322837
 20
-4.7330669291338578
 30
0
 40
0.02
  0
CIRCLE
  5
76
330
1A
100
AcDbEntity
  8
Edge.Cuts
100
AcDbCircle
 10
7.3143661417322834
 20
-4.7330669291338578
 30
0
 40
0.02
  0
CIRCLE
  5
77
330
1A
100
AcDbEntity
  8
Edge.Cuts
100
AcDbCircle
 10
4.9153543307086611
 20
-4.1305118110236219
 30
0
 40
0.0059055118110236
  0
CIRCLE
  5
78
330
1A
100
AcDbEntity
  8
Edge.Cuts
100
AcDbCircle
 10
4.9153543307086611
 20
-4.1816929133858265
 30
0
 40
0.0059055118110236
  0
CIRCLE
  5
79
330
1A
100
AcDbEntity
  8
Edge.Cuts
100
AcDbCircle
 10
4.9153543307086611
 20
-4.2328740157480311
 30
0
 40
0.0059055118110236
  0
CIRCLE
  5
7A
330
1A
100
AcDbEntity
  8
Edge.Cuts
100
AcDbCircle
 10
4.9153543307086611
 20
-4.2840551181102358
 30
0
 40
0.0059055118110236
  0
CIRCLE
  5
7B
330
1A
100
AcDbEntity
  8
Edge.Cuts
100
AcDbCircle
 10
4.9665354330708658
 20
-4.1305118110236219
 30
0
 40
0.0059055118110236
  0
CIRCLE
  5
7C
330
1A
100
AcDbEntity
  8
Edge.Cuts
100
AcDbCircle
 10
4.9665354330708658
 20
-4.1816929133858265
 30
0
 40
0.0059055118110236
  0
CIRCLE
  5
7D
330
1A
100
AcDbEntity
  8
Edge.Cuts
100
AcDbCircle
 10
4.9665354330708658
 20
-4.2328740157480311
 30
0
 40
0.0059055118110236
  0
CIRCLE
  5
7E
330
1A
100
AcDbEntity
  8
Edge.Cuts
100
AcDbCircle
 10
4.9665354330708658
 20
-4.2840551181102358
 30
0
 40
0.0059055118110236
  0
CIRCLE
  5
7F
330
1A
100
AcDbEntity
  8
Edge.Cuts
100
AcDbCircle
 10
5.5039370078740157
 20
-3.4826771653543305
 30
0
 40
0.031496062992126
  0
CIRCLE
  5
80
330
1A
100
AcDbEntity
  8
Edge.Cuts
100
AcDbCircle
 10
5.5039370078740157
 20
-3.0921259842519686
 30
0
 40
0.031496062992126
  0
CIRCLE
  5
81
330
1A
100
AcDbEntity
  8
Edge.Cuts
100
AcDbCircle
 10
5.6377952755905509
 20
-3.4826771653543305
 30
0
 40
0.031496062992126
  0
CIRCLE
  5
82
330
1A
100
AcDbEntity
  8
Edge.Cuts
100
AcDbCircle
 10
5.6377952755905509
 20
-3.0921259842519686
 30
0
 40
0.031496062992126
  0
CIRCLE
  5
83
330
1A
100
AcDbEntity
  8
Edge.Cuts
100
AcDbCircle
 10
5.2866141732283465
 20
-2.8141732283464567
 30
0
 40
0.0196850393700787
  0
CIRCLE
  5
84
330
1A
100
AcDbEntity
  8
Edge.Cuts
100
AcDbCircle
 10
5.1866141732283459
 20
-2.8141732283464567
 30
0
 40
0.0196850393700787
  0
CIRCLE
  5
85
330
1A
100
AcDbEntity
  8
Edge.Cuts
100
AcDbCircle
 10
5.0866141732283463
 20
-2.8141732283464567
 30
0
 40
0.0196850393700787
  0
CIRCLE
  5
86
330
1A
100
AcDbEntity
  8
Edge.Cuts
100
AcDbCircle
 10
4.9866141732283467
 20
-2.8141732283464567
 30
0
 40
0.0196850393700787
  0
CIRCLE
  5
87
330
1A
100
AcDbEntity
  8
Edge.Cuts
100
AcDbCircle
 10
4.8866141732283461
 20
-2.8141732283464567
 30
0
 40
0.0196850393700787
  0
CIRCLE
  5
88
330
1A
100
AcDbEntity
  8
Edge.Cuts
100
AcDbCircle
 10
4.7866141732283465
 20
-2.8141732283464567
 30
0
 40
0.0196850393700787
  0
CIRCLE
  5
89
330
1A
100
AcDbEntity
  8
Edge.Cuts
100
AcDbCircle
 10
7.2503937007874013
 20
-3.326771653543307
 30
0
 40
0.02
  0
CIRCLE
  5
8A
330
1A
100
AcDbEntity
  8
Edge.Cuts
100
AcDbCircle
 10
7.1503937007874017
 20
-3.326771653543307
 30
0
 40
0.02
  0
CIRCLE
  5
8B
330
1A
100
AcDbEntity
  8
Edge.Cuts
100
AcDbCircle
 10
7.0503937007874011
 20
-3.326771653543307
 30
0
 40
0.02
  0
CIRCLE
  5
8C
330
1A
100
AcDbEntity
  8
Edge.Cuts
100
AcDbCircle
 10
6.9503937007874015
 20
-3.326771653543307
 30
0
 40
0.02
  0
CIRCLE
  5
8D
330
1A
100
AcDbEntity
  8
Edge.Cuts
100
AcDbCircle
 10
6.8503937007874018
 20
-3.326771653543307
 30
0
 40
0.02
  0
CIRCLE
  5
8E
330
1A
100
AcDbEntity
  8
Edge.Cuts
100
AcDbCircle
 10
6.7503937007874013
 20
-3.326771653543307
 30
0
 40
0.02
  0
CIRCLE
  5
8F
330
1A
100
AcDbEntity
  8
Edge.Cuts
100
AcDbCircle
 10
6.6503937007874017
 20
-3.326771653543307
 30
0
 40
0.02
  0
CIRCLE
  5
90
330
1A
100
AcDbEntity
  8
Edge.Cuts
100
AcDbCircle
 10
6.5503937007874011
 20
-3.326771653543307
 30
0
 40
0.02
  0
CIRCLE
  5
91
330
1A
100
AcDbEntity
  8
Edge.Cuts
100
AcDbCircle
 10
6.4503937007874015
 20
-3.326771653543307
 30
0
 40
0.02
  0
CIRCLE
  5
92
330
1A
100
AcDbEntity
  8
Edge.Cuts
100
AcDbCircle
 10
6.3503937007874018
 20
-3.326771653543307
 30
0
 40
0.02
  0
CIRCLE
  5
93
330
1A
100
AcDbEntity
  8
Edge.Cuts
100
AcDbCircle
 10
4.8185039370078737
 20
-4.5555118110236217
 30
0
 40
0.0137795275590551
  0
CIRCLE
  5
94
330
1A
100
AcDbEntity
  8
Edge.Cuts
100
AcDbCircle
 10
7.3216496062992125
 20
-4.5009881889763781
 30
0
 40
0.02
  0
CIRCLE
  5
95
330
1A
100
AcDbEntity
  8
Edge.Cuts
100
AcDbCircle
 10
7.3216496062992125
 20
-4.4009881889763776
 30
0
 40
0.02
  0
CIRCLE
  5
96
330
1A
100
AcDbEntity
  8
Edge.Cuts
100
AcDbCircle
 10
7.3216496062992125
 20
-4.3009881889763779
 30
0
 40
0.02
  0
CIRCLE
  5
97
330
1A
100
AcDbEntity
  8
Edge.Cuts
100
AcDbCircle
 10
7.3216496062992125
 20
-4.2009881889763783
 30
0
 40
0.02
  0
CIRCLE
  5
98
330
1A
100
AcDbEntity
  8
Edge.Cuts
100
AcDbCircle
 10
7.3216496062992125
 20
-4.1009881889763777
 30
0
 40
0.02
  0
CIRCLE
  5
99
330
1A
100
AcDbEntity
  8
Edge.Cuts
100
AcDbCircle
 10
7.3216496062992125
 20
-4.0009881889763781
 30
0
 40
0.02
  0
CIRCLE
  5
9A
330
1A
100
AcDbEntity
  8
Edge.Cuts
100
AcDbCircle
 10
7.3216496062992125
 20
-3.900988188976378
 30
0
 40
0.02
  0
CIRCLE
  5
9B
330
1A
100
AcDbEntity
  8
Edge.Cuts
100
AcDbCircle
 10
7.3216496062992125
 20
-3.8009881889763779
 30
0
 40
0.02
  0
CIRCLE
  5
9C
330
1A
100
AcDbEntity
  8
Edge.Cuts
100
AcDbCircle
 10
7.3216496062992125
 20
-3.7009881889763778
 30
0
 40
0.02
  0
CIRCLE
  5
9D
330
1A
100
AcDbEntity
  8
Edge.Cuts
100
AcDbCircle
 10
7.3216496062992125
 20
-3.6009881889763777
 30
0
 40
0.02
  0
CIRCLE
  5
9E
330
1A
100
AcDbEntity
  8
Edge.Cuts
100
AcDbCircle
 10
5.1629921259842515
 20
-4.5555118110236217
 30
0
 40
0.0137795275590551
  0
CIRCLE
  5
9F
330
1A
100
AcDbEntity
  8
Edge.Cuts
100
AcDbCircle
 10
5.9807086614173226
 20
-2.3387155511811022
 30
0
 40
0.0600393307086614
  0
CIRCLE
  5
A0
330
1A
100
AcDbEntity
  8
Edge.Cuts
100
AcDbCircle
 10
7.5708661417322833
 20
-2.4961958661417323
 30
0
 40
0.025
  0
CIRCLE
  5
A1
330
1A
100
AcDbEntity
  8
Edge.Cuts
100
AcDbCircle
 10
7.4330708661417324
 20
-2.4961958661417323
 30
0
 40
0.025
  0
CIRCLE
  5
A2
330
1A
100
AcDbEntity
  8
Edge.Cuts
100
AcDbCircle
 10
7.2952755905511806
 20
-2.4961958661417323
 30
0
 40
0.025
  0
CIRCLE
  5
A3
330
1A
100
AcDbEntity
  8
Edge.Cuts
100
AcDbCircle
 10
7.1574803149606296
 20
-2.4961958661417323
 30
0
 40
0.025
  0
CIRCLE
  5
A4
330
1A
100
AcDbEntity
  8
Edge.Cuts
100
AcDbCircle
 10
7.0196850393700787
 20
-2.4961958661417323
 30
0
 40
0.025
  0
CIRCLE
  5
A5
330
1A
100
AcDbEntity
  8
Edge.Cuts
100
AcDbCircle
 10
6.8818897637795278
 20
-2.4961958661417323
 30
0
 40
0.025
  0
CIRCLE
  5
A6
330
1A
100
AcDbEntity
  8
Edge.Cuts
100
AcDbCircle
 10
6.7440944881889759
 20
-2.4961958661417323
 30
0
 40
0.025
  0
CIRCLE
  5
A7
330
1A
100
AcDbEntity
  8
Edge.Cuts
100
AcDbCircle
 10
6.606299212598425
 20
-2.4961958661417323
 30
0
 40
0.025
  0
CIRCLE
  5
A8
330
1A
100
AcDbEntity
  8
Edge.Cuts
100
AcDbCircle
 10
6.4685039370078741
 20
-2.4961958661417323
 30
0
 40
0.025
  0
CIRCLE
  5
A9
330
1A
100
AcDbEntity
  8
Edge.Cuts
100
AcDbCircle
 10
6.3307086614173222
 20
-2.4961958661417323
 30
0
 40
0.025
  0
CIRCLE
  5
AA
330
1A
100
AcDbEntity
  8
Edge.Cuts
100
AcDbCircle
 10
7.5708661417322833
 20
-2.3387155511811022
 30
0
 40
0.025
  0
CIRCLE
  5
AB
330
1A
100
AcDbEntity
  8
Edge.Cuts
100
AcDbCircle
 10
7.4330708661417324
 20
-2.3387155511811022
 30
0
 40
0.025
  0
CIRCLE
  5
AC
330
1A
100
AcDbEntity
  8
Edge.Cuts
100
AcDbCircle
 10
7.2952755905511806
 20
-2.3387155511811022
 30
0
 40
0.025
  0
CIRCLE
  5
AD
330
1A
100
AcDbEntity
  8
Edge.Cuts
100
AcDbCircle
 10
7.1574803149606296
 20
-2.3387155511811022
 30
0
 40
0.025
  0
CIRCLE
  5
AE
330
1A
100
AcDbEntity
  8
Edge.Cuts
100
AcDbCircle
 10
7.0196850393700787
 20
-2.3387155511811022
 30
0
 40
0.025
  0
CIRCLE
  5
AF
330
1A
100
AcDbEntity
  8
Edge.Cuts
100
AcDbCircle
 10
6.8818897637795278
 20
-2.3387155511811022
 30
0
 40
0.025
  0
CIRCLE
  5
B0
330
1A
100
AcDbEntity
  8
Edge.Cuts
100
AcDbCircle
 10
6.7440944881889759
 20
-2.3387155511811022
 30
0
 40
0.025
  0
CIRCLE
  5
B1
330
1A
100
AcDbEntity
  8
Edge.Cuts
100
AcDbCircle
 10
6.606299212598425
 20
-2.3387155511811022
 30
0
 40
0.025
  0
CIRCLE
  5
B2
330
1A
100
AcDbEntity
  8
Edge.Cuts
100
AcDbCircle
 10
6.4685039370078741
 20
-2.3387155511811022
 30
0
 40
0.025
  0
CIRCLE
  5
B3
330
1A
100
AcDbEntity
  8
Edge.Cuts
100
AcDbCircle
 10
6.3307086614173222
 20
-2.3387155511811022
 30
0
 40
0.025
  0
CIRCLE
  5
B4
330
1A
100
AcDbEntity
  8
Edge.Cuts
100
AcDbCircle
 10
5.3555118110236215
 20
-2.4961958661417323
 30
0
 40
0.025
  0
CIRCLE
  5
B5
330
1A
100
AcDbEntity
  8
Edge.Cuts
100
AcDbCircle
 10
5.2177165354330706
 20
-2.4961958661417323
 30
0
 40
0.025
  0
CIRCLE
  5
B6
330
1A
100
AcDbEntity
  8
Edge.Cuts
100
AcDbCircle
 10
5.0799212598425196
 20
-2.4961958661417323
 30
0
 40
0.025
  0
CIRCLE
  5
B7
330
1A
100
AcDbEntity
  8
Edge.Cuts
100
AcDbCircle
 10
4.9421259842519687
 20
-2.4961958661417323
 30
0
 40
0.025
  0
CIRCLE
  5
B8
330
1A
100
AcDbEntity
  8
Edge.Cuts
100
AcDbCircle
 10
4.8043307086614169
 20
-2.4961958661417323
 30
0
 40
0.025
  0
CIRCLE
  5
B9
330
1A
100
AcDbEntity
  8
Edge.Cuts
100
AcDbCircle
 10
4.6665354330708659
 20
-2.4961958661417323
 30
0
 40
0.025
  0
CIRCLE
  5
BA
330
1A
100
AcDbEntity
  8
Edge.Cuts
100
AcDbCircle
 10
5.3555118110236215
 20
-2.3387155511811022
 30
0
 40
0.025
  0
CIRCLE
  5
BB
330
1A
100
AcDbEntity
  8
Edge.Cuts
100
AcDbCircle
 10
5.2177165354330706
 20
-2.3387155511811022
 30
0
 40
0.025
  0
CIRCLE
  5
BC
330
1A
100
AcDbEntity
  8
Edge.Cuts
100
AcDbCircle
 10
5.0799212598425196
 20
-2.3387155511811022
 30
0
 40
0.025
  0
CIRCLE
  5
BD
330
1A
100
AcDbEntity
  8
Edge.Cuts
100
AcDbCircle
 10
4.9421259842519687
 20
-2.3387155511811022
 30
0
 40
0.025
  0
CIRCLE
  5
BE
330
1A
100
AcDbEntity
  8
Edge.Cuts
100
AcDbCircle
 10
4.8043307086614169
 20
-2.3387155511811022
 30
0
 40
0.025
  0
CIRCLE
  5
BF
330
1A
100
AcDbEntity
  8
Edge.Cuts
100
AcDbCircle
 10
4.6665354330708659
 20
-2.3387155511811022
 30
0
 40
0.025
  0
CIRCLE
  5
C0
330
1A
100
AcDbEntity
  8
Edge.Cuts
100
AcDbCircle
 10
4.8185039370078737
 20
-4.7838582677165356
 30
0
 40
0.0137795275590551
  0
CIRCLE
  5
C1
330
1A
100
AcDbEntity
  8
Edge.Cuts
100
AcDbCircle
 10
5.8539370078740154
 20
-2.8149606299212597
 30
0
 40
0.0196850393700787
  0
CIRCLE
  5
C2
330
1A
100
AcDbEntity
  8
Edge.Cuts
100
AcDbCircle
 10
5.9539370078740159
 20
-2.8149606299212597
 30
0
 40
0.0196850393700787
  0
CIRCLE
  5
C3
330
1A
100
AcDbEntity
  8
Edge.Cuts
100
AcDbCircle
 10
6.0539370078740156
 20
-2.8149606299212597
 30
0
 40
0.0196850393700787
  0
CIRCLE
  5
C4
330
1A
100
AcDbEntity
  8
Edge.Cuts
100
AcDbCircle
 10
6.1539370078740152
 20
-2.8149606299212597
 30
0
 40
0.0196850393700787
  0
CIRCLE
  5
C5
330
1A
100
AcDbEntity
  8
Edge.Cuts
100
AcDbCircle
 10
6.1232322834645672
 20
-3.8159409448818895
 30
0
 40
0.02
  0
CIRCLE
  5
C6
330
1A
100
AcDbEntity
  8
Edge.Cuts
100
AcDbCircle
 10
6.1232322834645672
 20
-3.9159409448818896
 30
0
 40
0.02
  0
CIRCLE
  5
C7
330
1A
100
AcDbEntity
  8
Edge.Cuts
100
AcDbCircle
 10
6.1232322834645672
 20
-4.0159409448818897
 30
0
 40
0.02
  0
CIRCLE
  5
C8
330
1A
100
AcDbEntity
  8
Edge.Cuts
100
AcDbCircle
 10
6.1232322834645672
 20
-4.1159409448818893
 30
0
 40
0.02
  0
CIRCLE
  5
C9
330
1A
100
AcDbEntity
  8
Edge.Cuts
100
AcDbCircle
 10
6.1232322834645672
 20
-4.2159409448818899
 30
0
 40
0.02
  0
CIRCLE
  5
CA
330
1A
100
AcDbEntity
  8
Edge.Cuts
100
AcDbCircle
 10
6.1232322834645672
 20
-4.3159409448818895
 30
0
 40
0.02
  0
CIRCLE
  5
CB
330
1A
100
AcDbEntity
  8
Edge.Cuts
100
AcDbCircle
 10
6.1232322834645672
 20
-4.41594094488189
 30
0
 40
0.02
  0
CIRCLE
  5
CC
330
1A
100
AcDbEntity
  8
Edge.Cuts
100
AcDbCircle
 10
6.1232322834645672
 20
-4.5159409448818897
 30
0
 40
0.02
  0
CIRCLE
  5
CD
330
1A
100
AcDbEntity
  8
Edge.Cuts
100
AcDbCircle
 10
6.1232322834645672
 20
-4.6159409448818893
 30
0
 40
0.02
  0
CIRCLE
  5
CE
330
1A
100
AcDbEntity
  8
Edge.Cuts
100
AcDbCircle
 10
6.1232322834645672
 20
-4.7159409448818899
 30
0
 40
0.02
  0
CIRCLE
  5
CF
330
1A
100
AcDbEntity
  8
Edge.Cuts
100
AcDbCircle
 10
6.893700787401575
 20
-3.5629921259842519
 30
0
 40
0.0196850393700787
  0
CIRCLE
  5
D0
330
1A
100
AcDbEntity
  8
Edge.Cuts
100
AcDbCircle
 10
6.7937007874015745
 20
-3.5629921259842519
 30
0
 40
0.0196850393700787
  0
CIRCLE
  5
D1
330
1A
100
AcDbEntity
  8
Edge.Cuts
100
AcDbCircle
 10
6.6937007874015748
 20
-3.5629921259842519
 30
0
 40
0.0196850393700787
  0
CIRCLE
  5
D2
330
1A
100
AcDbEntity
  8
Edge.Cuts
100
AcDbCircle
 10
6.5937007874015743
 20
-3.5629921259842519
 30
0
 40
0.0196850393700787
  0
CIRCLE
  5
D3
330
1A
100
AcDbEntity
  8
Edge.Cuts
100
AcDbCircle
 10
6.4937007874015746
 20
-3.5629921259842519
 30
0
 40
0.0196850393700787
  0
CIRCLE
  5
D4
330
1A
100
AcDbEntity
  8
Edge.Cuts
100
AcDbCircle
 10
6.393700787401575
 20
-3.5629921259842519
 30
0
 40
0.0196850393700787
  0
CIRCLE
  5
D5
330
1A
100
AcDbEntity
  8
Edge.Cuts
100
AcDbCircle
 10
5.5206692913385824
 20
-2.8149606299212597
 30
0
 40
0.0196850393700787
  0
CIRCLE
  5
D6
330
1A
100
AcDbEntity
  8
Edge.Cuts
100
AcDbCircle
 10
5.620669291338583
 20
-2.8149606299212597
 30
0
 40
0.0196850393700787
  0
CIRCLE
  5
D7
330
1A
100
AcDbEntity
  8
Edge.Cuts
100
AcDbCircle
 10
6.1023622047244093
 20
-3.0118110236220472
 30
0
 40
0.0216535433070866
  0
CIRCLE
  5
D8
330
1A
100
AcDbEntity
  8
Edge.Cuts
100
AcDbCircle
 10
6.1023622047244093
 20
-3.2677165354330708
 30
0
 40
0.0216535433070866
  0
CIRCLE
  5
D9
330
1A
100
AcDbEntity
  8
Edge.Cuts
100
AcDbCircle
 10
5.9251968503937009
 20
-3.0118110236220472
 30
0
 40
0.0216535433070866
  0
CIRCLE
  5
DA
330
1A
100
AcDbEntity
  8
Edge.Cuts
100
AcDbCircle
 10
5.9251968503937009
 20
-3.2677165354330708
 30
0
 40
0.0216535433070866
  0
ENDSEC
  0
SECTION
  2
OBJECTS
  0
DICTIONARY
  5
20
330
0
100
AcDbDictionary
281
1
  3
ACAD_GROUP
350
DB
  3
ACAD_LAYOUT
350
21
  3
ACAD_PLOTSTYLENAME
350
11
  0
DICTIONARY
  5
DB
330
20
100
AcDbDictionary
281
1
  0
ACDBDICTIONARYWDFLT
  5
11
330
20
100
AcDbDictionary
281
1
  3
Normal
350
10
100
AcDbDictionaryWithDefault
340
10
  0
ACDBPLACEHOLDER
  5
10
330
11
  0
DICTIONARY
  5
21
330
20
100
AcDbDictionary
281
1
  3
Model
350
1D
  3
Layout1
350
1E
  3
Layout2
350
1F
  0
LAYOUT
  5
1D
330
21
100
AcDbPlotSettings
  1

  2
none_device
  4
A3
  6

 40
0.0
 41
0.0
 42
0.0
 43
0.0
 44
420.0
 45
297.0
 46
0.0
 47
0.0
 48
0.0
 49
0.0
140
0.0
141
0.0
142
1.0
143
1.0
 70
1024
 72
1
 73
0
 74
5
  7

 75
16
 76
0
 77
2
 78
300
147
1.0
148
0.0
149
0.0
100
AcDbLayout
  1
Model
 70
1
 71
0
 10
0.0
 20
0.0
 11
420.0
 21
297.0
 12
0.0
 22
0.0
 32
0.0
 14
1e+20
 24
1e+20
 34
1e+20
 15
-1e+20
 25
-1e+20
 35
-1e+20
146
0.0
 13
0.0
 23
0.0
 33
0.0
 16
1.0
 26
0.0
 36
0.0
 17
0.0
 27
1.0
 37
0.0
 76
0
330
1A
  0
LAYOUT
  5
1E
330
21
100
AcDbPlotSettings
  1

  2
none_device
  4
A3
  6

 40
0.0
 41
0.0
 42
0.0
 43
0.0
 44
420.0
 45
297.0
 46
0.0
 47
0.0
 48
0.0
 49
0.0
140
0.0
141
0.0
142
1.0
143
1.0
 70
0
 72
1
 73
0
 74
5
  7

 75
16
 76
0
 77
2
 78
300
147
1.0
148
0.0
149
0.0
100
AcDbLayout
  1
Layout1
 70
1
 71
1
 10
0.0
 20
0.0
 11
420.0
 21
297.0
 12
0.0
 22
0.0
 32
0.0
 14
1e+20
 24
1e+20
 34
1e+20
 15
-1e+20
 25
-1e+20
 35
-1e+20
146
0.0
 13
0.0
 23
0.0
 33
0.0
 16
1.0
 26
0.0
 36
0.0
 17
0.0
 27
1.0
 37
0.0
 76
0
330
1B
  0
LAYOUT
  5
1F
330
21
100
AcDbPlotSettings
  1

  2
none_device
  4
A3
  6

 40
0.0
 41
0.0
 42
0.0
 43
0.0
 44
420.0
 45
297.0
 46
0.0
 47
0.0
 48
0.0
 49
0.0
140
0.0
141
0.0
142
1.0
143
1.0
 70
0
 72
1
 73
0
 74
5
  7

 75
16
 76
0
 77
2
 78
300
147
1.0
148
0.0
149
0.0
100
AcDbLayout
  1
Layout2
 70
1
 71
2
 10
0.0
 20
0.0
 11
420.0
 21
297.0
 12
0.0
 22
0.0
 32
0.0
 14
1e+20
 24
1e+20
 34
1e+20
 15
-1e+20
 25
-1e+20
 35
-1e+20
146
0.0
 13
0.0
 23
0.0
 33
0.0
 16
1.0
 26
0.0
 36
0.0
 17
0.0
 27
1.0
 37
0.0
 76
0
330
1C
  0
ENDSEC
  0
EOF
